<svg xmlns="http://www.w3.org/2000/svg" viewBox="0 0 32 32"><defs><style>.cls-1{fill:#b94e9c;}.cls-2{fill:#0c182e;}.cls-3{fill:#07c0c5;}.cls-4{fill:#fff;}</style></defs><g id="Option_A_Colors_1" data-name="Option A_Colors 1"><path class="cls-1" d="M7.28,8.71l.37.06a11.62,11.62,0,0,1,2.4-2.35A11.59,11.59,0,0,0,7.28,8.71Zm-.59,10a10.83,10.83,0,0,1-.33-1.93l-.66-.6a11.34,11.34,0,0,0,5.88,9.72,11.56,11.56,0,0,0,1.73.77l0-.18A11.83,11.83,0,0,1,6.69,18.73Zm8.42,8.41v0l.18,0Zm1.9.68A11.87,11.87,0,0,1,5.67,19.29a11.83,11.83,0,0,1-.47-3.58h0c-.26-.26-.5-.51-.73-.77a11.74,11.74,0,0,0,.37,4.69,11.59,11.59,0,0,0,13.3,8.14C17.76,27.8,17.39,27.82,17,27.82ZM5.72,15.18h0l.6.56a12,12,0,0,1,4.55-9.29A11.43,11.43,0,0,0,5.72,15.18Zm1-5.78A11.72,11.72,0,0,0,4.62,14l.64.72a12,12,0,0,1,1.4-4.42c.16-.29.32-.57.5-.84Z"/><polygon class="cls-2" points="17.96 9.24 18.1 8.44 16.27 8.21 16.13 9.05 17.96 9.24"/><polygon class="cls-2" points="15.57 12.82 15.44 13.63 17.27 13.81 17.41 13.01 15.57 12.82"/><path class="cls-3" d="M22.93,25.51h0a8.81,8.81,0,0,1-.85.62,10.44,10.44,0,0,0,1-.58Zm5-12.7a11.35,11.35,0,0,0-10-8.13,11.89,11.89,0,0,1,9.18,8.59A11.86,11.86,0,0,1,23.64,24.9l.3.06h0a11.57,11.57,0,0,0,3-3.53A11.29,11.29,0,0,0,27.91,12.81Zm1-.44A11.59,11.59,0,0,0,15.73,4.22a11.83,11.83,0,0,1,12.36,16l.24.31A11.55,11.55,0,0,0,29,12.37ZM27.4,21.68a11.78,11.78,0,0,1-2.18,2.85,11.58,11.58,0,0,0,2.71-3.25L27.74,21C27.63,21.24,27.52,21.46,27.4,21.68Z"/><path class="cls-2" d="M24.53,25.06l.08,0,.61-.55C25,24.72,24.76,24.89,24.53,25.06Z"/><path class="cls-2" d="M29.32,22.17a9.2,9.2,0,0,0-1-1.67l-.24-.31a11.83,11.83,0,0,0-12.36-16h0a11.92,11.92,0,0,0-2,.4,11.74,11.74,0,0,0-3.67,1.8,11.62,11.62,0,0,0-2.4,2.35l-.37-.06a9.7,9.7,0,0,0-2.56-.05A2.75,2.75,0,0,0,2.53,9.89c-.65,1.18,0,3,1.93,5,.23.26.47.51.73.77h0a11.83,11.83,0,0,0,6.14,10.64A11.66,11.66,0,0,0,17,27.82c.38,0,.75,0,1.12-.05a12.15,12.15,0,0,0,2.21-.43A11.85,11.85,0,0,0,23.8,25.7h0a12.61,12.61,0,0,0,3,.25c.18,0,.36,0,.52-.06a2.66,2.66,0,0,0,2.12-1.22A2.7,2.7,0,0,0,29.32,22.17ZM5.26,14.71,4.62,14A5.59,5.59,0,0,1,3,10.88a1.28,1.28,0,0,1,.15-.63A2.08,2.08,0,0,1,4.83,9.4l.4,0a9.6,9.6,0,0,1,1.49,0l.44,0c-.18.27-.34.55-.5.84A12,12,0,0,0,5.26,14.71Zm8.08,11.8,0,.18a11.56,11.56,0,0,1-1.73-.77A11.34,11.34,0,0,1,5.7,16.2l.66.6a41.72,41.72,0,0,0,7.2,4.93l.57.31Zm8.74-.38h0a11.51,11.51,0,0,1-6.79,1.06l-.18,0v0l.74-4.23a35.56,35.56,0,0,0,7.08,2.6h0l.18,0A10.44,10.44,0,0,1,22.08,26.13ZM23.94,25l-.3-.06A34.16,34.16,0,0,1,16,22.15l.78-4.45-1.84-.19-.66,3.75a3.9,3.9,0,0,1-.35-.19,38.8,38.8,0,0,1-7.6-5.32l-.6-.56h0a11.43,11.43,0,0,1,5.15-8.72,11.77,11.77,0,0,1,3-1.36A11.24,11.24,0,0,1,17,4.65c.29,0,.59,0,.88,0h0A11.34,11.34,0,0,1,27,21.44,11.57,11.57,0,0,1,24,25Zm4.87-.65c-.46.83-2,1.1-4.2.77l-.08,0c.23-.17.47-.34.69-.53h0a11.78,11.78,0,0,0,2.18-2.85c.12-.22.23-.44.34-.66l.19.26a7.08,7.08,0,0,1,.71,1.2A2,2,0,0,1,28.81,24.31Z"/><path class="cls-2" d="M24.52,10.91a.46.46,0,0,0-.26-.16l-3.47-.87h0l-6.7-.69-.34,3.24,6.73.7,3.73-1a.47.47,0,0,0,.26-.14.48.48,0,0,0,.12-.26l.05-.53A.41.41,0,0,0,24.52,10.91Zm-.45.76-3.65.94L14.28,12l.24-2.25,6.16.64,3.44.86Z"/><polygon class="cls-1" points="24.12 11.23 24.07 11.67 20.42 12.61 14.28 11.98 14.52 9.73 20.68 10.37 24.12 11.23"/><polygon class="cls-3" points="18.63 14.71 18.39 16.96 12.25 16.32 8.88 14.65 8.87 14.65 8.92 14.21 12.46 14.06 18.63 14.71"/><path class="cls-2" d="M12.49,13.57h0l-3.59.14a.48.48,0,0,0-.29.1.39.39,0,0,0-.16.29l-.06.53a.45.45,0,0,0,.06.28.43.43,0,0,0,.23.19l3.45,1.71,6.73.69.33-3.24Zm-.24,2.75L8.88,14.65h0l.05-.44,3.54-.15,6.17.65L18.39,17Z"/><polygon class="cls-4" points="18.03 14.94 17.83 16.64 15.93 16.47 17.36 14.88 18.03 14.94"/><polygon class="cls-4" points="15.56 16.37 16.98 14.84 16.35 14.76 14.83 16.33 15.56 16.37"/><polygon class="cls-4" points="14.96 9.98 14.75 11.68 16.64 11.96 15.63 10.09 14.96 9.98"/><polygon class="cls-4" points="17.02 11.96 16 10.13 16.64 10.2 17.74 12.09 17.02 11.96"/></g></svg>