<svg xmlns="http://www.w3.org/2000/svg" viewBox="0 0 640 640"><defs><style>.cls-1{fill:#b94e9c;}.cls-2{fill:#0c182e;}.cls-3{fill:#07c0c5;}.cls-4{fill:#fff;}</style></defs><g id="Option_A_Colors_1" data-name="Option A_Colors 1"><path class="cls-1" d="M143.39,172.48c2.47.34,5,.7,7.52,1.11a236.37,236.37,0,0,1,48.58-47.5A233.51,233.51,0,0,0,143.39,172.48Zm-11.91,202.8a234.2,234.2,0,0,1-6.7-39.18q-6.91-6-13.36-12.08A230,230,0,0,0,265.57,536.45l.63-3.6C201.06,503.81,150.08,446.81,131.48,375.28ZM302,545.56l-.06.34,3.69.6C304.39,546.2,303.19,545.88,302,545.56Zm38.56,13.76a240.11,240.11,0,0,1-239.29-245.1l0,0q-8-7.9-14.86-15.56a233.69,233.69,0,0,0,7.56,94.81C128,510.68,245.66,580.91,363.22,558.24Q351.88,559.32,340.54,559.32ZM112,303.5h0q5.77,5.73,12,11.49c.42-72.39,34.21-142.25,92.28-188A230.53,230.53,0,0,0,112,303.5Zm20.1-117.12a235.42,235.42,0,0,0-42.44,92.9q5.94,7.14,13,14.58a239.11,239.11,0,0,1,28.32-89.53q4.77-8.7,10.18-16.89C138,187,135,186.67,132.05,186.38Z"/><polygon class="cls-2" points="359.78 183.14 362.49 166.87 325.41 162.33 322.58 179.36 359.78 183.14"/><polygon class="cls-2" points="311.29 255.57 308.55 271.99 345.78 275.76 348.48 259.51 311.29 255.57"/><path class="cls-3" d="M460.41,512.62h0q-8.32,6.6-17.31,12.53A226.18,226.18,0,0,0,464,513.43ZM561.21,255.5C533.83,161.41,451.11,98.16,358.76,90.84c88.81,17.81,162.59,84.51,185.84,173.88,22.3,85.72-6.07,176.27-69.83,235.56,2.05.42,4.07.83,6.08,1.21a.66.66,0,0,1,.15,0,230,230,0,0,0,80.21-246Zm21-8.94c-34-116.67-150.62-186.79-267.61-165.12A239.7,239.7,0,0,1,564.81,404.92c1.67,2.08,3.27,4.14,4.78,6.2A233.57,233.57,0,0,0,582.17,246.56ZM550.88,434.94a239.84,239.84,0,0,1-44.22,57.81,234.9,234.9,0,0,0,54.85-65.85c-1.24-1.72-2.53-3.45-3.87-5.21Q554.49,428.38,550.88,434.94Z"/><path class="cls-2" d="M492.62,503.52l1.7.27q6.36-5.3,12.33-11Q499.87,498.38,492.62,503.52Z"/><path class="cls-2" d="M589.75,444.87a187,187,0,0,0-20.16-33.75c-1.51-2.06-3.11-4.12-4.78-6.2A239.71,239.71,0,0,0,314.56,81.44h-.05a242.08,242.08,0,0,0-115,44.64,236.37,236.37,0,0,0-48.58,47.5c-2.55-.41-5-.77-7.52-1.11-19.88-2.69-37.19-3-51.69-1.07-22,3-36.94,11.37-44.34,24.85-13.18,24,.64,59.95,39,102.36q6.9,7.65,14.86,15.56l0,0a240,240,0,0,0,239.29,245.1q11.32,0,22.68-1.08a243,243,0,0,0,44.62-8.58,239.89,239.89,0,0,0,70-33.32l.17,0c23.5,4.48,44,6.16,61.14,5q5.45-.37,10.44-1.11c21.27-3.17,35.73-11.46,43-24.66C600,482.14,599,465.07,589.75,444.87Zm-487.19-151q-7-7.42-13-14.58c-20.82-24.94-32-46.91-32-63a26.1,26.1,0,0,1,3-12.72c5-9,16.11-14.81,33.11-17.14,2.6-.35,5.3-.62,8.12-.81a184.53,184.53,0,0,1,30.18.78c2.92.29,5.93.65,9,1.06q-5.4,8.19-10.18,16.89A239.11,239.11,0,0,0,102.56,293.86Zm163.64,239-.63,3.6a231.2,231.2,0,0,1-35.14-15.67A229.58,229.58,0,0,1,111.42,324q6.45,6,13.36,12.08c39.54,34.61,90.2,69.39,145.74,99.9q5.82,3.18,11.63,6.28Zm176.9-7.7,0,0A232.76,232.76,0,0,1,405,540a228.71,228.71,0,0,1-99.4,6.53l-3.69-.6.06-.34,15-85.63c50.58,24.36,99.88,42.5,143.4,52.69h0l3.55.81A226.18,226.18,0,0,1,443.1,525.15Zm37.75-23.66c-2-.38-4-.79-6.08-1.21-46.08-9.53-99.8-28.93-155-55.85l15.79-90-37.21-3.92-13.4,76.06c-2.36-1.28-4.73-2.56-7.09-3.86C218,389.85,164,352,124,315q-6.23-5.75-12-11.49h0A229.61,229.61,0,0,1,340.78,90.13q9,0,18,.71h0c92.35,7.32,175.07,70.57,202.45,164.66a230,230,0,0,1-80.21,246A.66.66,0,0,0,480.85,501.49Zm98.45-13.16c-9.19,16.75-39.84,22.21-85,15.46l-1.7-.27q7.25-5.13,14-10.77h0a239.84,239.84,0,0,0,44.22-57.81q3.61-6.56,6.76-13.25c1.34,1.76,2.63,3.49,3.87,5.21A148,148,0,0,1,576,451.19C583.15,466.79,584.26,479.29,579.3,488.33Z"/><path class="cls-2" d="M492.6,217a9.65,9.65,0,0,0-5.43-3.22L416.94,196l-.35-.09-135.66-14-6.79,65.66,136.19,14.1,75.44-19.41A9.78,9.78,0,0,0,491,239.5a9.07,9.07,0,0,0,2.46-5.38l1.12-10.8A8.35,8.35,0,0,0,492.6,217Zm-9.11,15.44-73.92,19L285.22,238.56,289.94,193l124.88,12.93,69.6,17.57Z"/><polygon class="cls-1" points="484.42 223.48 483.5 232.42 409.57 251.43 285.22 238.56 289.94 192.98 414.82 205.91 484.42 223.48"/><polygon class="cls-3" points="373.18 293.79 368.44 339.37 244.1 326.45 175.75 292.72 175.65 292.67 176.58 283.73 248.29 280.82 373.18 293.79"/><path class="cls-2" d="M249,270.74l-.36,0-72.74,3a9.68,9.68,0,0,0-6,2,8.42,8.42,0,0,0-3.24,5.81l-1.13,10.8a9.05,9.05,0,0,0,1.29,5.73,9.79,9.79,0,0,0,4.58,3.8l69.86,34.48,136.19,14.14,6.82-65.66Zm-4.88,55.71-68.34-33.73-.11-.05.93-8.94,71.71-2.91,124.89,13-4.74,45.58Z"/><polygon class="cls-4" points="361.13 298.48 357.07 332.89 318.61 329.46 347.48 297.35 361.13 298.48"/><polygon class="cls-4" points="311.09 327.58 339.87 296.46 327.02 294.81 296.38 326.6 311.09 327.58"/><polygon class="cls-4" points="298.98 198.08 294.72 232.47 332.9 238.29 312.5 200.24 298.98 198.08"/><polygon class="cls-4" points="340.65 238.26 320.11 201.18 332.97 202.63 355.17 240.81 340.65 238.26"/></g></svg>