<svg xmlns="http://www.w3.org/2000/svg" xmlns:xlink="http://www.w3.org/1999/xlink" viewBox="0 0 640 640"><defs><style>.cls-1{fill:none;}.cls-2{fill:#fff;}.cls-3{fill:#0c182e;}.cls-4{fill:#07c0c5;}.cls-5{fill:#b94e9c;}.cls-6{clip-path:url(#clip-path);}</style><clipPath id="clip-path"><circle class="cls-1" cx="348.3" cy="320" r="235.16"/></clipPath></defs><g id="Option_A_Colors_1" data-name="Option A_Colors 1"><circle class="cls-2" cx="348.3" cy="320" r="235.16"/><polygon class="cls-3" points="366.08 184.93 368.79 168.62 331.63 164.06 328.79 181.13 366.08 184.93"/><polygon class="cls-3" points="317.47 257.54 314.73 274 352.05 277.78 354.76 261.49 317.47 257.54"/><path class="cls-3" d="M499.24,218.85a9.72,9.72,0,0,0-5.44-3.23l-70.41-17.77-.35-.09L287,183.68l-6.82,65.83,136.54,14.13,75.63-19.45a9.82,9.82,0,0,0,5.25-2.76A9,9,0,0,0,500.1,236l1.13-10.83A8.41,8.41,0,0,0,499.24,218.85Zm-9.13,15.48L416,253.39,291.34,240.48l4.72-45.68,125.2,12.95L491,225.37Z"/><polygon class="cls-4" points="491.03 225.37 490.11 234.33 415.99 253.39 291.34 240.48 296.06 194.8 421.26 207.75 491.03 225.37"/><polygon class="cls-5" points="379.51 295.85 374.77 341.54 250.12 328.6 181.6 294.78 181.49 294.73 182.43 285.77 254.32 282.85 379.51 295.85"/><path class="cls-3" d="M255,272.74l-.36,0-72.92,3a9.68,9.68,0,0,0-6,2,8.37,8.37,0,0,0-3.25,5.82l-1.12,10.83a9,9,0,0,0,1.28,5.75,10,10,0,0,0,4.59,3.81l70,34.56,136.53,14.18,6.84-65.83Zm-4.88,55.85L181.6,294.78l-.11,0,.94-9,71.89-2.92,125.19,13-4.74,45.69Z"/><polygon class="cls-2" points="367.43 300.56 363.37 335.05 324.81 331.61 353.75 299.42 367.43 300.56"/><polygon class="cls-2" points="317.27 329.73 346.12 298.53 333.25 296.87 302.52 328.75 317.27 329.73"/><polygon class="cls-2" points="305.13 199.91 300.87 234.38 339.13 240.22 318.69 202.06 305.13 199.91"/><polygon class="cls-2" points="346.91 240.18 326.31 203.01 339.21 204.47 361.46 242.74 346.91 240.18"/><g class="cls-6"><path class="cls-4" d="M300.86,89.26C425.54,53,556,124.61,592.32,249.29S557,504.45,432.29,540.74c99.56-52.38,150.11-166.55,122.36-273.25C525.65,156,418.17,79.69,300.86,89.26Z"/><path class="cls-5" d="M391.12,552C266.45,588.28,136,516.63,99.67,392S135,136.8,259.7,100.51c-99.56,52.38-150.12,166.54-122.37,273.25C166.34,485.25,273.82,561.55,391.12,552Z"/></g><path class="cls-2" d="M143.92,203.59c-17-2.61-29.79-4-42.6-3.17-2.82.19-5.52.46-8.13.82-17,2.33-28.22,8.11-33.2,17.17h0c-10.92,19.9,8.28,57.33,51.37,100.13,41,40.73,100.08,83.2,166.35,119.59,72.28,39.68,144.57,67.73,203.55,79,52.61,10,88.58,5.22,98.69-13.18,5-9.07,3.86-21.6-3.33-37.23q-7.23-15.76-21.87-34s3.61-6.83,4.11-8.05c.17-.44,3.77-7.74,3.77-7.74a182.59,182.59,0,0,1,27.79,43.44c9.3,20.24,10.26,37.36,2.84,50.87-7.26,13.23-21.76,21.55-43.09,24.72q-5,.75-10.47,1.11c-17.17,1.14-37.72-.54-61.28-5-60.51-11.53-134.38-40.14-208-80.57C202.92,414.38,142.64,371,100.66,329.31,51.05,280,31.88,238.06,46.68,211.1c7.42-13.51,22.38-21.89,44.45-24.91,17.66-2.42,36-1.31,61.59,3.19Z"/><path class="cls-3" d="M308.32,544.47l12-67.41c48.73,23.27,96,40.64,138.27,50.68l19.09-11.34c-46-9.41-99.31-28.25-154.59-54.88l18.67-104.86-37.31-3.94-16.14,91.14Q283,441,277.71,438.13C213,402.6,154,360.13,113.14,320.29l1,21.93c40.73,37.55,96.34,76.33,156.23,109.22q7.58,4.15,15.13,8.14l-12.8,72.29s6.23,2.73,8.48,3.58c1.13.42,3,1.18,5,1.94s4.07,1.49,4.93,1.78l4.95,1.66,6.08,1.91Z"/></g></svg>