<svg xmlns="http://www.w3.org/2000/svg" xmlns:xlink="http://www.w3.org/1999/xlink" viewBox="0 0 640 640"><defs><style>.cls-1{fill:none;}.cls-2{fill:#fff;}.cls-3{fill:#0c182e;}.cls-4{fill:#07c0c5;}.cls-5{fill:#b94e9c;}.cls-6{clip-path:url(#clip-path);}</style><clipPath id="clip-path"><circle class="cls-1" cx="304.26" cy="326.01" r="194.58"/></clipPath></defs><g id="Option_A_Colors_1" data-name="Option A_Colors 1"><circle class="cls-2" cx="304.26" cy="326.01" r="194.58"/><polygon class="cls-3" points="318.98 214.25 321.22 200.75 290.47 196.99 288.12 211.11 318.98 214.25"/><polygon class="cls-3" points="278.75 274.33 276.49 287.95 307.36 291.08 309.61 277.6 278.75 274.33"/><path class="cls-2" d="M187.37,146.68,137.57,95l11.82-5.77,33,34.05L178.8,74.89l10.9-5.32,33,34.05L219,55.27l11.91-5.81,5.53,73.27L227.67,127,192.28,90.47l3.88,51.92Z"/><path class="cls-2" d="M257.21,59.79a13,13,0,0,1,1.5-6.75A14,14,0,0,1,263.2,48a12.15,12.15,0,0,1,6.39-2.17l41-2.19a12.17,12.17,0,0,1,6.58,1.47,13.54,13.54,0,0,1,4.93,4.58,12.75,12.75,0,0,1,2,6.57l2.25,55.64-12.35.66-.94-23.18L270.79,91.6l.93,23.18-12.26.65Zm55.33,16.9-.78-19.25a1,1,0,0,0-.4-.79,1.19,1.19,0,0,0-.85-.29L270.57,58.5a1.06,1.06,0,0,0-.78.37,1.12,1.12,0,0,0-.29.83L270.28,79Z"/><path class="cls-2" d="M355.68,119.67l6.75-25L344,44.6l14,4L372.05,83l29.1-22.13,14.23,4L374.31,98.15l-6.73,24.9Z"/><path class="cls-2" d="M398.07,132.82l36.87-57.63L479.73,106a12.75,12.75,0,0,1,4.44,5.24,14.47,14.47,0,0,1,1.34,6.76,12.94,12.94,0,0,1-2.09,6.58l-9.95,15.55a12.7,12.7,0,0,1-5.06,4.6,12.53,12.53,0,0,1-12.88-.9l-34.65-23.74-12.61,19.72ZM428.68,110l33.21,22.86a1.34,1.34,0,0,0,.85.24.9.9,0,0,0,.72-.43l9.43-14.75a1.11,1.11,0,0,0,.13-.89,1.27,1.27,0,0,0-.52-.76L439.29,93.43a1,1,0,0,0-.83-.17,1.05,1.05,0,0,0-.71.49l-9.43,14.75a1,1,0,0,0-.14.83A1.18,1.18,0,0,0,428.68,110Z"/><path class="cls-2" d="M463,183.18a13,13,0,0,1-2.53-6.43,14.82,14.82,0,0,1,.85-6.83,12.72,12.72,0,0,1,4-5.54l32.36-26a11.94,11.94,0,0,1,6.16-2.64,13,13,0,0,1,6.54.89,12.22,12.22,0,0,1,5.32,4.19l24.92,33.78a13,13,0,0,1,2.53,6.43,14.56,14.56,0,0,1-.85,6.83,12.79,12.79,0,0,1-4,5.55L506,219.4a12,12,0,0,1-6.16,2.64,13.11,13.11,0,0,1-6.55-.88A12.28,12.28,0,0,1,488,217Zm10-7.45,24.25,32.87a1.28,1.28,0,0,0,.77.48,1,1,0,0,0,.85-.2l31.48-25.32a1.05,1.05,0,0,0,.39-.8,1.34,1.34,0,0,0-.25-.9L506.3,149a1.07,1.07,0,0,0-.74-.44,1,1,0,0,0-.81.23l-31.49,25.32a1.14,1.14,0,0,0-.42.77A1.13,1.13,0,0,0,473.06,175.73Z"/><path class="cls-2" d="M503,244.8a13.4,13.4,0,0,1-.49-7,14.47,14.47,0,0,1,2.83-6.25,12.18,12.18,0,0,1,5.45-4l4.77-1.79,4.08,12-4.26,1.6a1.09,1.09,0,0,0-.63.6,1.19,1.19,0,0,0,0,.89L528,280.14a1.1,1.1,0,0,0,.57.66,1,1,0,0,0,.85,0l11.9-4.48a1,1,0,0,0,.58-.58,1.3,1.3,0,0,0,0-.87l-13.46-39.69a13.3,13.3,0,0,1-.5-6.95,14.47,14.47,0,0,1,2.83-6.25,12.48,12.48,0,0,1,5.53-4l12.86-4.84a11.58,11.58,0,0,1,6.62-.54,13.19,13.19,0,0,1,6,2.94,12.8,12.8,0,0,1,3.8,5.71l13.65,40.23a13.4,13.4,0,0,1,.49,6.95,14.53,14.53,0,0,1-2.83,6.25,12.31,12.31,0,0,1-5.45,4l-4.77,1.8-4.11-12.11,4.26-1.6a1.15,1.15,0,0,0,.63-.6,1.19,1.19,0,0,0,0-.89l-13.31-39.23a1.17,1.17,0,0,0-.57-.66,1,1,0,0,0-.85,0l-11.9,4.48a.93.93,0,0,0-.58.58,1.3,1.3,0,0,0,0,.87l13.5,39.78a13.4,13.4,0,0,1,.49,6.95,14.47,14.47,0,0,1-2.83,6.25,12.48,12.48,0,0,1-5.53,4L533,293.14a11.58,11.58,0,0,1-6.62.54,13.29,13.29,0,0,1-5.95-2.94,12.7,12.7,0,0,1-3.79-5.71Z"/><path class="cls-2" d="M522,328.55l54-2-.69-28.44,12.24-.45,1.71,69.67-12.25.45-.69-28.35-54,1.95Z"/><path class="cls-3" d="M429.16,242.32a8,8,0,0,0-4.51-2.67L366.4,224.94l-.3-.07L253.58,213.22l-5.65,54.47,113,11.69,62.58-16.1a8.15,8.15,0,0,0,4.34-2.28,7.5,7.5,0,0,0,2-4.46l.93-9A6.94,6.94,0,0,0,429.16,242.32Zm-7.56,12.8-61.32,15.77L257.13,260.21l3.91-37.8,103.6,10.73,57.73,14.57Z"/><polygon class="cls-4" points="422.37 247.71 421.6 255.12 360.27 270.89 257.13 260.21 261.04 222.41 364.64 233.14 422.37 247.71"/><polygon class="cls-5" points="330.09 306.03 326.17 343.83 223.03 333.12 166.33 305.15 166.24 305.1 167.01 297.69 226.5 295.27 330.09 306.03"/><path class="cls-3" d="M227.07,286.91l-.3,0-60.34,2.45a8.07,8.07,0,0,0-5,1.69,6.94,6.94,0,0,0-2.68,4.81l-.94,9a7.52,7.52,0,0,0,1.07,4.76,8.15,8.15,0,0,0,3.8,3.15l57.94,28.6,113,11.73,5.66-54.46Zm-4,46.21-56.7-28-.09,0,.77-7.41,59.49-2.42L330.09,306l-3.92,37.8Z"/><polygon class="cls-2" points="320.09 309.92 316.73 338.47 284.82 335.62 308.77 308.99 320.09 309.92"/><polygon class="cls-2" points="278.59 334.06 302.46 308.24 291.81 306.88 266.38 333.25 278.59 334.06"/><polygon class="cls-2" points="268.54 226.64 265.01 255.17 296.68 260 279.76 228.43 268.54 226.64"/><polygon class="cls-2" points="303.11 259.97 286.07 229.21 296.74 230.42 315.15 262.08 303.11 259.97"/><g class="cls-6"><path class="cls-4" d="M265,135.09c103.16-30,211.13,29.25,241.16,132.41S476.92,478.63,373.76,508.66C456.14,465.31,498,370.85,475,282.56,451,190.31,362.08,127.17,265,135.09Z"/><path class="cls-5" d="M339.69,518C236.53,548,128.57,488.71,98.54,385.55S127.79,174.42,231,144.4C148.57,187.74,106.74,282.2,129.7,370.49,153.7,462.75,242.63,525.88,339.69,518Z"/></g><path class="cls-2" d="M135.16,229.69c-14.1-2.16-24.66-3.33-35.25-2.62-2.33.15-4.58.38-6.73.67-14.11,1.93-23.35,6.71-27.47,14.21h0c-9,16.47,6.85,47.44,42.5,82.85,33.93,33.7,82.81,68.84,137.65,98.95,59.8,32.84,119.62,56,168.42,65.34,43.53,8.3,73.29,4.32,81.66-10.91,4.12-7.5,3.19-17.86-2.75-30.8q-6-13-18.1-28.12s3-5.65,3.39-6.67c.15-.36,3.13-6.4,3.13-6.4a150.93,150.93,0,0,1,23,35.94c7.7,16.75,8.49,30.92,2.35,42.1-6,10.94-18,17.82-35.65,20.45q-4.14.61-8.66.92c-14.21.94-31.22-.45-50.71-4.16-50.07-9.54-111.19-33.22-172.12-66.67-55.84-30.66-105.72-66.55-140.45-101-41-40.77-56.91-75.51-44.66-97.81,6.13-11.18,18.51-18.12,36.78-20.62,14.61-2,29.82-1.08,51,2.64Z"/><path class="cls-3" d="M271.18,511.75,281.12,456c40.32,19.25,79.42,33.62,114.41,41.93l15.79-9.38c-38.08-7.79-82.17-23.38-127.91-45.41l15.45-86.77L268,353.09,254.63,428.5q-4.38-2.34-8.78-4.75c-53.53-29.39-102.36-64.54-136.17-97.5l.86,18.15c33.7,31.07,79.72,63.16,129.27,90.37q6.25,3.44,12.51,6.73l-10.59,59.82s5.16,2.26,7,3c.94.35,2.51,1,4.16,1.6s3.36,1.24,4.08,1.48l4.09,1.38,5,1.57Z"/><path class="cls-2" d="M69.81,349.07a3.11,3.11,0,0,1,1.71.29,3.32,3.32,0,0,1,1.31,1.13,3.53,3.53,0,0,1,.61,1.73l1.11,12.42a3.68,3.68,0,0,1-.28,1.84,3.57,3.57,0,0,1-1.08,1.42,3.11,3.11,0,0,1-1.63.67l-15,1.71-.27-2.95,6.42-.73L61.46,353l-6.41.73-.27-2.92Zm-4.37,17.22,5.78-.66a.62.62,0,0,0,.43-.25.67.67,0,0,0,.15-.5l-1.11-12.27a.62.62,0,0,0-.23-.45A.57.57,0,0,0,70,352l-5.79.66Z"/><path class="cls-2" d="M57,372.78l3.12-.59,17,10.19.23.65-3.07.58-17-10.19Z"/><path class="cls-2" d="M77.49,384.25,81,399a3.78,3.78,0,0,1,0,1.83,3.66,3.66,0,0,1-.88,1.56,3.11,3.11,0,0,1-1.52.88l-3.66,1a2.85,2.85,0,0,1-.66.11,2,2,0,0,1-.65-.07,7.23,7.23,0,0,1-1.11,1.15,3.26,3.26,0,0,1-1.17.6l-4,1a3,3,0,0,1-1.74,0,3.34,3.34,0,0,1-1.46-.95,3.5,3.5,0,0,1-.85-1.63L59.58,389Zm-14.4,7.51L65.9,403.7a.68.68,0,0,0,.3.43.62.62,0,0,0,.48.07l3.86-1a.69.69,0,0,0,.39-.31.66.66,0,0,0,.07-.52l-2.81-11.94a.67.67,0,0,0-.3-.42.62.62,0,0,0-.48-.08l-3.85,1a.62.62,0,0,0-.39.32A.65.65,0,0,0,63.09,391.76Zm7.79-2.05,2.63,11.18a.6.6,0,0,0,.29.4.59.59,0,0,0,.48.07l3.51-.92a.68.68,0,0,0,.47-.8l-2.63-11.17a.64.64,0,0,0-.3-.42.58.58,0,0,0-.48-.08l-3.51.92a.65.65,0,0,0-.39.31A.71.71,0,0,0,70.88,389.71Z"/><path class="cls-2" d="M70,426.32l14.72-5.69-2.79-7.78,2.6-1,6.56,18.31-2.6,1-2.78-7.76L71,429.1Z"/><path class="cls-2" d="M76,440.78a4,4,0,0,1,.57-1.68,3,3,0,0,1,1.32-1.16l7.47-3.57a3,3,0,0,1,1.71-.28,3.66,3.66,0,0,1,1.62.64,3.24,3.24,0,0,1,1.13,1.39l3.64,8.12a3.48,3.48,0,0,1,.31,1.81,3.54,3.54,0,0,1-.59,1.69,3.2,3.2,0,0,1-1.32,1.15l-5,2.38-5.31-11.86-2.41,1.15a.61.61,0,0,0-.32.38.64.64,0,0,0,0,.51l5,11.25-2.52,1.2-5.07-11.32A3.43,3.43,0,0,1,76,440.78Zm7.91-2.49L88,447.46l2.57-1.22a.61.61,0,0,0,.33-.37.62.62,0,0,0,0-.5l-3.57-8a.7.7,0,0,0-.37-.35.64.64,0,0,0-.49,0Z"/><path class="cls-2" d="M84.07,458.24a4,4,0,0,1,.46-1.72,3.11,3.11,0,0,1,1.23-1.26l.34-.19,1.38,2.56-.27.15a.68.68,0,0,0-.24.91l4.14,7.68a.62.62,0,0,0,.39.3.58.58,0,0,0,.48-.06l1.76-1a.65.65,0,0,0,.3-.4.6.6,0,0,0-.05-.49L89.81,457a3.51,3.51,0,0,1-.44-1.76,3.84,3.84,0,0,1,.46-1.72,3.2,3.2,0,0,1,1.24-1.26L93,451.16a2.94,2.94,0,0,1,1.69-.4,3.51,3.51,0,0,1,1.66.51,3.27,3.27,0,0,1,1.24,1.31l4.22,7.81a3.42,3.42,0,0,1,.43,1.78,3.89,3.89,0,0,1-.45,1.72,3.15,3.15,0,0,1-1.24,1.24l-.34.2-1.39-2.58.27-.16a.6.6,0,0,0,.3-.39.63.63,0,0,0,0-.5L95.16,454a.69.69,0,0,0-.39-.32.59.59,0,0,0-.49.05l-1.76,1a.62.62,0,0,0-.3.4.65.65,0,0,0,.06.51l4.18,7.74a3.53,3.53,0,0,1,.44,1.78,3.6,3.6,0,0,1-.45,1.71,3.29,3.29,0,0,1-1.25,1.26l-1.89,1.07a3,3,0,0,1-1.69.42,3.58,3.58,0,0,1-1.66-.51,3.36,3.36,0,0,1-1.24-1.32L84.5,460A3.41,3.41,0,0,1,84.07,458.24Z"/><path class="cls-2" d="M93.48,475a3.8,3.8,0,0,1,.35-1.74A3.08,3.08,0,0,1,95,471.93L108.75,463l1.53,2.47-4,2.58,3.37,5.44L107.33,475,104,469.56l-7.37,4.79a.65.65,0,0,0-.27.42.67.67,0,0,0,.08.5l3,4.87-2.34,1.53L94,476.73A3.38,3.38,0,0,1,93.48,475Z"/><path class="cls-2" d="M98.52,483.79l12.33-8.63,1.61,2.41-12.32,8.63Zm14.07-9.85,2.29-1.61,1.62,2.41-2.29,1.61Z"/><path class="cls-2" d="M102.11,489.27,114,480l7.39,9.89a3.47,3.47,0,0,1,.68,1.69,3.74,3.74,0,0,1-.21,1.76,3.16,3.16,0,0,1-1.05,1.41L111.59,502l-1.73-2.32,9.16-7.11a.63.63,0,0,0,.24-.44.67.67,0,0,0-.13-.5l-5.2-7a.63.63,0,0,0-.43-.26.57.57,0,0,0-.48.12l-9.17,7.11Z"/><path class="cls-2" d="M111,510.5l2.11-1.9,6.26,7.17a.59.59,0,0,0,.45.22.57.57,0,0,0,.47-.15l1.83-1.65-6.2-7.11a3.57,3.57,0,0,1-.81-1.61,3.5,3.5,0,0,1,.08-1.79,3.24,3.24,0,0,1,1-1.48l6.18-5.57a3,3,0,0,1,1.57-.77,3.72,3.72,0,0,1,1.75.14,3.29,3.29,0,0,1,1.48,1l5.82,6.66a3.52,3.52,0,0,1,.81,1.64,3.73,3.73,0,0,1-.08,1.76,3.26,3.26,0,0,1-1,1.49l-10.6,9.55a3.2,3.2,0,0,1-1.58.79,3.5,3.5,0,0,1-3.23-1.15Zm7.06-5.24,5.71,6.54a.66.66,0,0,0,.45.23.6.6,0,0,0,.47-.16l6.07-5.46a.6.6,0,0,0,.2-.46.64.64,0,0,0-.16-.48l-5.71-6.54a.61.61,0,0,0-.45-.22.55.55,0,0,0-.47.15l-6.07,5.46a.6.6,0,0,0-.2.46A.63.63,0,0,0,118,505.26Z"/><path class="cls-2" d="M134.82,527.31a3.44,3.44,0,0,1-1-1.49,3.67,3.67,0,0,1-.14-1.77,3.21,3.21,0,0,1,.76-1.61l3.5-4a1.71,1.71,0,0,1,1.18-.5,2.5,2.5,0,0,1,1.63.5,2.66,2.66,0,0,1,.6-2.27l1.76-2a3.19,3.19,0,0,1,1.48-1,3.31,3.31,0,0,1,1.74-.08,3.4,3.4,0,0,1,1.61.82l7.76,6.94a3.28,3.28,0,0,1,.9,1.33,4.33,4.33,0,0,1,.25,1.6,3.84,3.84,0,0,1-.39,1.52l-1.15,1.31-2.18-1.94.71-.8a.64.64,0,0,0,.15-.46.67.67,0,0,0-.24-.46l-7.66-6.85a.66.66,0,0,0-.46-.17.59.59,0,0,0-.43.21l-2.2,2.51,5.22,12.84,2.11-2.41,2.16,1.93-2.81,3.21,1.24,3.73-1.77,2-1.41-4a4,4,0,0,1-2,.28,3.16,3.16,0,0,1-1.74-.78Zm1.92-2.06,8.23,7.36a1.09,1.09,0,0,0,.54.25,1.83,1.83,0,0,0,.66,0l-5-12.12-.25-.33a.58.58,0,0,0-.52-.12,1.33,1.33,0,0,0-.7.5l-3.07,3.5a.58.58,0,0,0-.15.48A.62.62,0,0,0,136.74,525.25Z"/><path class="cls-2" d="M158.49,547.18,169,531.67l14.55,10L182,544l-12.14-8.34L167,539.89l9.76,6.7L175.12,549l-9.76-6.7-4.47,6.57Z"/><path class="cls-2" d="M176.82,558.83a3.83,3.83,0,0,1-.48-1.68,3.06,3.06,0,0,1,.42-1.71l4.15-7.24a3.11,3.11,0,0,1,1.26-1.23,3.66,3.66,0,0,1,1.69-.44,3.28,3.28,0,0,1,1.74.45l7.66,4.39a3.4,3.4,0,0,1,1.29,1.26,3.54,3.54,0,0,1,.48,1.7,3.31,3.31,0,0,1-.44,1.71l-2.77,4.84-11.18-6.41-1.33,2.33a.62.62,0,0,0-.06.5.7.7,0,0,0,.31.4l10.6,6.07-1.4,2.44-10.67-6.1A3.32,3.32,0,0,1,176.82,558.83Zm5.13-6.64,8.65,4.95,1.42-2.48a.65.65,0,0,0,.07-.49.61.61,0,0,0-.3-.4l-7.51-4.3a.7.7,0,0,0-.51-.07.65.65,0,0,0-.4.3Z"/><path class="cls-2" d="M195.13,569.37a3.54,3.54,0,0,1-1.39-1.17,3.68,3.68,0,0,1-.61-1.64,3.27,3.27,0,0,1,.3-1.73l2.39-5,11.64,5.46,1.15-2.42a.6.6,0,0,0,0-.49.58.58,0,0,0-.33-.37l-11.06-5.19,1.21-2.55,11.13,5.23a3.49,3.49,0,0,1,1.39,1.15,3.53,3.53,0,0,1,.61,1.65,3.36,3.36,0,0,1-.31,1.74l-5,10.59Zm1.28-2.51,8.42,3.95,1.5-3.18-9-4.24-1.23,2.6a.6.6,0,0,0,0,.49A.64.64,0,0,0,196.41,566.86Z"/><path class="cls-2" d="M211.32,576.06a3.59,3.59,0,0,1-.72-1.59,3.17,3.17,0,0,1,.19-1.74l6.11-15.32,2.69,1.05-1.76,4.43,5.92,2.31-1,2.62-5.93-2.32-3.27,8.2a.62.62,0,0,0,0,.5.65.65,0,0,0,.36.35l5.31,2.08-1,2.61-5.38-2.1A3.39,3.39,0,0,1,211.32,576.06Z"/><path class="cls-2" d="M222.61,580.36a3.75,3.75,0,0,1-.82-1.55,3.18,3.18,0,0,1,.08-1.75l3.64-11.13,2.75.87-3.61,11.06a.65.65,0,0,0,0,.49.63.63,0,0,0,.39.33l8.27,2.6a.65.65,0,0,0,.51,0,.66.66,0,0,0,.33-.37l3.61-11.07,2.75.87-3.63,11.14a3.22,3.22,0,0,1-1,1.47,3.67,3.67,0,0,1-1.58.78,3.32,3.32,0,0,1-1.82-.08l-8.42-2.65A3.41,3.41,0,0,1,222.61,580.36Z"/><path class="cls-2" d="M239.36,585.9l2.84-11.36a3.1,3.1,0,0,1,.88-1.53,3.85,3.85,0,0,1,1.54-.9,3.29,3.29,0,0,1,1.79-.05l8.44,2-.68,2.73-8.36-2a.71.71,0,0,0-.51.08.63.63,0,0,0-.3.4l-2.82,11.28Z"/><path class="cls-2" d="M255.51,589.05a3.72,3.72,0,0,1-1-1.4,3,3,0,0,1-.19-1.74l1.44-8.2a3,3,0,0,1,.77-1.58,3.8,3.8,0,0,1,1.45-1,3.33,3.33,0,0,1,1.8-.19l8.74,1.39a3.39,3.39,0,0,1,2.69,2.13,3.13,3.13,0,0,1,.17,1.74l-1,5.48-12.76-2-.46,2.63a.61.61,0,0,0,.12.48.64.64,0,0,0,.43.27l12.1,1.92-.49,2.76-12.18-1.93A3.37,3.37,0,0,1,255.51,589.05Zm2.57-8,9.88,1.57.49-2.82a.64.64,0,0,0-.11-.48.59.59,0,0,0-.41-.26l-8.58-1.36a.65.65,0,0,0-.5.12.64.64,0,0,0-.28.42Z"/><path class="cls-2" d="M281.34,592.87l1-18.64,17.73.59-.15,2.8-14.8-.49-.28,5.1,11.9.39-.15,2.85-11.9-.4-.43,7.9Z"/><path class="cls-2" d="M303.07,592.73a3.6,3.6,0,0,1-1.27-1.18,2.9,2.9,0,0,1-.5-1.66l-.15-16.58,2.9-.09.15,16.5a.56.56,0,0,0,.21.44.6.6,0,0,0,.47.18l2.82-.09,0,2.8-2.91.09A3.24,3.24,0,0,1,303.07,592.73Z"/><path class="cls-2" d="M313.92,592.69a3.38,3.38,0,0,1-1.79-.3,3.42,3.42,0,0,1-1.34-1.09,3,3,0,0,1-.59-1.63l-.39-5.52,12.9-1.22-.18-2.66a.67.67,0,0,0-.22-.43.58.58,0,0,0-.47-.15l-12.26,1.15-.2-2.78,12.34-1.16a3.46,3.46,0,0,1,1.79.28,3.32,3.32,0,0,1,1.35,1.11,3.16,3.16,0,0,1,.59,1.63l.81,11.61Zm-.11-2.79,9.33-.88-.24-3.49-10,1,.2,2.84a.6.6,0,0,0,.23.43A.68.68,0,0,0,313.81,589.9Z"/><path class="cls-2" d="M333.19,596.43l-.43-2.78,9.43-1.71a.67.67,0,0,0,.44-.27.61.61,0,0,0,.13-.48l-.38-2.43L333,590.45a3.43,3.43,0,0,1-1.8-.13,3.37,3.37,0,0,1-1.45-1,3.1,3.1,0,0,1-.72-1.58l-1.27-8.16a3.12,3.12,0,0,1,.22-1.74,4.07,4.07,0,0,1,1.08-1.43,3.55,3.55,0,0,1,1.64-.77l8.77-1.58a3.35,3.35,0,0,1,1.81.14,3.62,3.62,0,0,1,1.44,1,3,3,0,0,1,.72,1.57l2.17,14a3.2,3.2,0,0,1-.2,1.76,3.69,3.69,0,0,1-1.06,1.42,3.59,3.59,0,0,1-1.68.76Zm-.51-8.74,8.61-1.56a.67.67,0,0,0,.44-.28.65.65,0,0,0,.13-.48l-1.25-8a.58.58,0,0,0-.27-.42.65.65,0,0,0-.49-.1l-8.61,1.55a.75.75,0,0,0-.44.28.61.61,0,0,0-.12.48l1.24,8a.55.55,0,0,0,.27.41A.66.66,0,0,0,332.68,587.69Z"/><path class="cls-2" d="M352.47,592.57l-.66-2.73,9.28-2.48a.7.7,0,0,0,.41-.31.63.63,0,0,0,.09-.49l-.57-2.38-9.2,2.46a3.54,3.54,0,0,1-1.8,0,3.32,3.32,0,0,1-1.53-.86,3,3,0,0,1-.85-1.51l-1.93-8a3,3,0,0,1,.08-1.75,3.85,3.85,0,0,1,1-1.51,3.39,3.39,0,0,1,1.57-.9l8.63-2.31a3.41,3.41,0,0,1,1.82,0,3.48,3.48,0,0,1,1.51.85,3,3,0,0,1,.85,1.51l3.31,13.74a3.28,3.28,0,0,1-.06,1.76,3.68,3.68,0,0,1-2.55,2.41Zm-1.22-8.66,8.47-2.26a.7.7,0,0,0,.41-.31.63.63,0,0,0,.09-.49L358.33,573a.59.59,0,0,0-.3-.39.65.65,0,0,0-.51-.06l-8.47,2.26a.7.7,0,0,0-.41.31.62.62,0,0,0-.09.49l1.89,7.86a.59.59,0,0,0,.3.39A.65.65,0,0,0,351.25,583.91Z"/><path class="cls-2" d="M362.16,566l-.8-2.66,2.79-.91.79,2.66ZM367,582.3,362.76,568l2.79-.91,4.27,14.3Z"/><path class="cls-2" d="M373.41,580.3l-5.06-14L380,561.76a3.49,3.49,0,0,1,1.82-.22,3.64,3.64,0,0,1,1.6.68,3,3,0,0,1,1,1.39l3.93,10.87-2.73,1.07-3.91-10.8a.59.59,0,0,0-.34-.35.69.69,0,0,0-.51,0l-8.19,3.2a.68.68,0,0,0-.38.35.63.63,0,0,0,0,.5l3.9,10.79Z"/><path class="cls-2" d="M396.37,577.24l-1.17-2.53,8.66-4.25a.67.67,0,0,0,.35-.39.6.6,0,0,0,0-.49l-1-2.21-8.6,4.21a3.56,3.56,0,0,1-1.77.37,3.37,3.37,0,0,1-1.67-.54,3.16,3.16,0,0,1-1.13-1.3l-3.43-7.45a3.06,3.06,0,0,1-.26-1.73,4,4,0,0,1,.66-1.66,3.49,3.49,0,0,1,1.38-1.2l8.06-3.94a3.46,3.46,0,0,1,1.79-.37,3.58,3.58,0,0,1,1.65.54,2.93,2.93,0,0,1,1.13,1.3l5.89,12.78a3.15,3.15,0,0,1,.27,1.73,3.65,3.65,0,0,1-.64,1.66,3.72,3.72,0,0,1-1.41,1.19ZM393.51,569l7.91-3.88a.72.72,0,0,0,.35-.38.66.66,0,0,0,0-.5L398.39,557a.6.6,0,0,0-.37-.32.7.7,0,0,0-.51,0l-7.91,3.87a.69.69,0,0,0-.34.39.6.6,0,0,0,0,.49l3.37,7.31a.57.57,0,0,0,.37.32A.64.64,0,0,0,393.51,569Z"/></g></svg>