<svg xmlns="http://www.w3.org/2000/svg" viewBox="0 0 640 640"><defs><style>.cls-1{fill:#b94e9c;}.cls-2{fill:#0c182e;}.cls-3{fill:#07c0c5;}.cls-4{fill:#0a1531;}.cls-5{fill:#fff;}</style></defs><g id="Option_A_Colors_1" data-name="Option A_Colors 1"><path class="cls-1" d="M133.72,216c2.06.28,4.14.58,6.26.92a196.86,196.86,0,0,1,40.45-39.55A194.28,194.28,0,0,0,133.72,216ZM123.8,384.86a194.7,194.7,0,0,1-5.57-32.62q-5.76-5-11.13-10.06A191.21,191.21,0,0,0,206.19,506a194.25,194.25,0,0,0,29.26,13l.52-3C181.74,491.88,139.29,444.42,123.8,384.86Zm142,141.77-.05.29c1,.18,2.05.34,3.08.5C267.77,527.17,266.77,526.9,265.76,526.63Zm32.1,11.46A199.91,199.91,0,0,1,98.64,334l0,0Q92,327.41,86.22,321A194.56,194.56,0,0,0,92.52,400c28.42,97.61,126.35,156.09,224.23,137.21Q307.3,538.09,297.86,538.09Zm-190.31-213h0q4.8,4.77,10,9.57A201.79,201.79,0,0,1,194.36,178.1,191.94,191.94,0,0,0,107.55,325.1Zm16.73-97.51a196,196,0,0,0-35.34,77.35q5,5.94,10.79,12.14a199.28,199.28,0,0,1,23.57-74.55q4-7.25,8.48-14.06C129.22,228.13,126.72,227.83,124.28,227.59Z"/><polygon class="cls-2" points="313.88 224.89 316.14 211.34 285.27 207.56 282.91 221.74 313.88 224.89"/><polygon class="cls-2" points="273.51 285.2 271.24 298.87 302.23 302.01 304.48 288.48 273.51 285.2"/><path class="cls-3" d="M397.67,499.21h0q-6.93,5.51-14.41,10.44a192.77,192.77,0,0,0,17.37-9.76Zm83.92-214.08c-22.8-78.33-91.67-131-168.56-137.08,74,14.82,135.38,70.35,154.73,144.76,18.57,71.37-5.05,146.76-58.14,196.12,1.71.36,3.39.69,5.07,1l.12,0a191.48,191.48,0,0,0,66.78-204.84Zm17.46-7.44c-28.28-97.14-125.41-155.51-222.81-137.47A199.56,199.56,0,0,1,484.59,409.54q2.09,2.59,4,5.16A194.45,194.45,0,0,0,499.05,277.69ZM473,434.54a199.93,199.93,0,0,1-36.82,48.12,195.4,195.4,0,0,0,45.66-54.82c-1-1.43-2.1-2.87-3.22-4.34Q476,429.08,473,434.54Z"/><path class="cls-2" d="M424.48,491.64l1.42.22q5.3-4.41,10.27-9.19Q430.53,487.35,424.48,491.64Z"/><path class="cls-2" d="M505.35,442.81a155.66,155.66,0,0,0-16.78-28.11q-1.89-2.56-4-5.16A199.58,199.58,0,0,0,276.24,140.22h0A202.2,202.2,0,0,0,242.4,147a199.41,199.41,0,0,0-62,30.38A196.86,196.86,0,0,0,140,216.94c-2.12-.34-4.2-.64-6.26-.92-16.55-2.25-31-2.55-43-.89-18.34,2.5-30.76,9.46-36.92,20.68-11,20,.53,49.92,32.45,85.23Q92,327.4,98.6,334l0,0A199.81,199.81,0,0,0,297.86,538.09q9.43,0,18.89-.9a202,202,0,0,0,95.44-34.88l.14,0c19.57,3.73,36.64,5.13,50.9,4.18q4.54-.3,8.7-.92c17.71-2.64,29.75-9.55,35.78-20.53C513.87,473.84,513.08,459.62,505.35,442.81ZM99.73,317.08q-5.83-6.19-10.79-12.14c-17.33-20.77-26.61-39.06-26.61-52.46a21.71,21.71,0,0,1,2.5-10.6c4.13-7.53,13.41-12.32,27.57-14.26,2.16-.3,4.41-.52,6.75-.68a152,152,0,0,1,25.13.65c2.44.24,4.94.54,7.5.88q-4.5,6.81-8.48,14.06A199.28,199.28,0,0,0,99.73,317.08ZM236,516.05l-.52,3a194.25,194.25,0,0,1-29.26-13A191.21,191.21,0,0,1,107.1,342.18q5.37,5,11.13,10.06c32.92,28.82,75.1,57.78,121.34,83.17q4.85,2.67,9.68,5.24Zm147.29-6.4s0,0,0,0A194,194,0,0,1,351.55,522a190.49,190.49,0,0,1-82.76,5.44c-1-.16-2.05-.32-3.08-.5l.05-.29,12.52-71.28c42.1,20.27,83.16,35.37,119.39,43.86h0l3,.68A192.77,192.77,0,0,1,383.26,509.65Zm31.43-19.71c-1.68-.32-3.36-.65-5.07-1-38.37-7.93-83.09-24.08-129.08-46.5l13.15-74.92-31-3.26-11.15,63.32-5.91-3.21c-49.83-27.37-94.77-58.87-128.1-89.69q-5.19-4.79-10-9.57h0A191.14,191.14,0,0,1,298.07,147.45q7.51,0,15,.6h0c76.89,6.09,145.76,58.75,168.56,137.08A191.48,191.48,0,0,1,414.81,490Zm82-10.95c-7.66,13.94-33.18,18.49-70.76,12.87l-1.42-.22q6-4.29,11.69-9h0A199.93,199.93,0,0,0,473,434.54q3-5.46,5.62-11c1.12,1.47,2.19,2.91,3.22,4.34a123.29,123.29,0,0,1,12.05,20.23C499.86,461.06,500.79,471.46,496.66,479Z"/><path class="cls-2" d="M192.72,154.65l-50-51.87L154.6,97l33.08,34.17-3.56-48.57,10.94-5.34,33.07,34.18L224.49,62.9l11.95-5.84L242,130.62l-8.82,4.3L197.64,98.23l3.9,52.12Z"/><path class="cls-2" d="M262.82,67.43a13.08,13.08,0,0,1,1.5-6.77,14.18,14.18,0,0,1,4.52-5.11,12.09,12.09,0,0,1,6.4-2.17l41.12-2.2a12.15,12.15,0,0,1,6.6,1.47,13.58,13.58,0,0,1,5,4.6,12.86,12.86,0,0,1,2,6.59l2.26,55.85-12.4.67-.94-23.27-42.42,2.27.94,23.27-12.31.66Zm55.54,17-.78-19.32a1.09,1.09,0,0,0-.41-.8,1.24,1.24,0,0,0-.85-.29l-40.09,2.15a1,1,0,0,0-.78.38,1.14,1.14,0,0,0-.3.83l.78,19.32Z"/><path class="cls-2" d="M361.66,127.54l6.77-25.08L349.91,52.19l14,4L378.09,90.7,407.3,68.49l14.28,4.06-41.23,33.39-6.74,25Z"/><path class="cls-2" d="M404.21,140.74l37-57.84,45,30.94a12.85,12.85,0,0,1,4.45,5.27,14.59,14.59,0,0,1,1.36,6.78,13.14,13.14,0,0,1-2.11,6.61l-10,15.61a12.78,12.78,0,0,1-5.08,4.61,12.56,12.56,0,0,1-6.55,1.34,12.42,12.42,0,0,1-6.38-2.24L427.1,128l-12.66,19.79Zm30.72-22.89,33.33,23a1.36,1.36,0,0,0,.85.24.87.87,0,0,0,.72-.43l9.47-14.81a1,1,0,0,0,.13-.89,1.32,1.32,0,0,0-.52-.77L445.58,101.2a1,1,0,0,0-.84-.17,1.09,1.09,0,0,0-.71.5l-9.47,14.8a1,1,0,0,0-.14.83A1.24,1.24,0,0,0,434.93,117.85Z"/><path class="cls-2" d="M469.42,191.29a13.12,13.12,0,0,1-2.54-6.45,14.81,14.81,0,0,1,.85-6.86,12.77,12.77,0,0,1,4-5.57l32.48-26.12a11.94,11.94,0,0,1,6.18-2.65,13.08,13.08,0,0,1,6.57.89,12.28,12.28,0,0,1,5.33,4.21l25,33.9a13.2,13.2,0,0,1,2.54,6.46A14.77,14.77,0,0,1,549,196a12.77,12.77,0,0,1-4,5.57l-32.48,26.12a12,12,0,0,1-6.19,2.65,13,13,0,0,1-6.57-.89,12.33,12.33,0,0,1-5.33-4.2Zm10.06-7.48,24.34,33a1.21,1.21,0,0,0,.77.48,1,1,0,0,0,.85-.19L537,191.67a1.06,1.06,0,0,0,.39-.81,1.3,1.3,0,0,0-.25-.89l-24.34-33a1.09,1.09,0,0,0-.74-.44,1,1,0,0,0-.82.23l-31.6,25.41a1.18,1.18,0,0,0-.2,1.63Z"/><path class="cls-2" d="M509.52,253.14a13.52,13.52,0,0,1-.5-7,14.68,14.68,0,0,1,2.84-6.27,12.24,12.24,0,0,1,5.47-4l4.8-1.81,4.09,12.06L522,247.74a1.08,1.08,0,0,0-.64.6,1.19,1.19,0,0,0,0,.89l13.36,39.38a1.1,1.1,0,0,0,.57.66,1,1,0,0,0,.85,0l11.94-4.5a.94.94,0,0,0,.59-.58,1.33,1.33,0,0,0,0-.88l-13.51-39.83a13.27,13.27,0,0,1-.5-7,14.46,14.46,0,0,1,2.84-6.27,12.37,12.37,0,0,1,5.55-4.05l12.91-4.86a11.65,11.65,0,0,1,6.64-.54,13.12,13.12,0,0,1,6,2.95,12.72,12.72,0,0,1,3.81,5.73L586,269.89a13.38,13.38,0,0,1,.5,7,14.46,14.46,0,0,1-2.84,6.27,12.21,12.21,0,0,1-5.47,4L573.39,289l-4.12-12.16,4.27-1.6a1.09,1.09,0,0,0,.63-.6,1.15,1.15,0,0,0,0-.89l-13.36-39.38a1.06,1.06,0,0,0-.56-.66,1,1,0,0,0-.86,0l-11.94,4.49a1,1,0,0,0-.59.58,1.33,1.33,0,0,0,0,.88l13.55,39.92a13.41,13.41,0,0,1,.5,7,14.68,14.68,0,0,1-2.84,6.27,12.55,12.55,0,0,1-5.56,4.05l-12.9,4.85a11.6,11.6,0,0,1-6.65.55,13.24,13.24,0,0,1-6-3,12.85,12.85,0,0,1-3.81-5.72Z"/><path class="cls-2" d="M528.64,337.2l54.24-2-.7-28.56,12.29-.44,1.71,69.93-12.29.44-.69-28.46-54.24,2Z"/><path class="cls-4" d="M58.89,340.71a3.05,3.05,0,0,1,1.72.28,3.34,3.34,0,0,1,1.31,1.14,3.53,3.53,0,0,1,.61,1.73l1.12,12.46a3.84,3.84,0,0,1-.28,1.85,3.66,3.66,0,0,1-1.09,1.42,3.11,3.11,0,0,1-1.63.67L45.58,362l-.27-3,6.44-.74-1.23-13.66-6.44.74-.26-2.94ZM54.51,358l5.8-.66a.65.65,0,0,0,.43-.24.69.69,0,0,0,.14-.51l-1.1-12.31a.67.67,0,0,0-.24-.45.57.57,0,0,0-.46-.15l-5.8.66Z"/><path class="cls-4" d="M46,364.49l3.14-.59,17.07,10.22.24.65-3.09.58-17.1-10.22Z"/><path class="cls-4" d="M66.6,376l3.49,14.81a3.66,3.66,0,0,1,0,1.83,3.52,3.52,0,0,1-.87,1.57,3.28,3.28,0,0,1-1.53.89l-3.67,1a3.64,3.64,0,0,1-.66.11,2.28,2.28,0,0,1-.65-.07,8.23,8.23,0,0,1-1.12,1.15,3.26,3.26,0,0,1-1.17.6l-4,1a3.06,3.06,0,0,1-1.75,0,3.43,3.43,0,0,1-1.47-.95,3.7,3.7,0,0,1-.85-1.63l-3.66-15.58Zm-14.45,7.52,2.82,12a.66.66,0,0,0,.3.43.63.63,0,0,0,.48.07l3.87-1a.65.65,0,0,0,.39-.3.7.7,0,0,0,.08-.53l-2.82-12a.71.71,0,0,0-.3-.42.64.64,0,0,0-.48-.08l-3.87,1a.6.6,0,0,0-.39.31A.66.66,0,0,0,52.15,383.52Zm7.81-2,2.64,11.22a.64.64,0,0,0,.3.4.62.62,0,0,0,.48.07l3.52-.92a.69.69,0,0,0,.39-.31.61.61,0,0,0,.08-.49l-2.64-11.22a.62.62,0,0,0-.3-.41.59.59,0,0,0-.48-.09l-3.52.93A.57.57,0,0,0,60,381,.71.71,0,0,0,60,381.47Z"/><path class="cls-4" d="M59.06,418.2l14.77-5.72-2.8-7.8,2.61-1L80.22,422l-2.61,1-2.78-7.78L60.05,421Z"/><path class="cls-4" d="M65.08,432.7a3.83,3.83,0,0,1,.58-1.68A3.12,3.12,0,0,1,67,429.85l7.49-3.58a3,3,0,0,1,1.72-.28,3.66,3.66,0,0,1,1.62.64A3.37,3.37,0,0,1,79,428l3.65,8.15a3.63,3.63,0,0,1-.28,3.5A3.24,3.24,0,0,1,81,440.84l-5,2.39-5.34-11.9-2.41,1.15a.61.61,0,0,0-.32.38.67.67,0,0,0,0,.52l5,11.27-2.53,1.21-5.08-11.35A3.38,3.38,0,0,1,65.08,432.7ZM73,430.2l4.12,9.21,2.58-1.23a.67.67,0,0,0,.33-.37.66.66,0,0,0,0-.5l-3.59-8a.66.66,0,0,0-.86-.34Z"/><path class="cls-4" d="M73.2,450.21a3.94,3.94,0,0,1,.46-1.72,3.11,3.11,0,0,1,1.23-1.26l.34-.19,1.39,2.56-.27.15a.64.64,0,0,0-.3.41.69.69,0,0,0,0,.51l4.16,7.7a.63.63,0,0,0,.39.31.66.66,0,0,0,.48-.06l1.76-1a.61.61,0,0,0,.31-.39.67.67,0,0,0,0-.5L79,449a3.51,3.51,0,0,1-.43-1.77,3.74,3.74,0,0,1,.45-1.72,3.25,3.25,0,0,1,1.25-1.27l1.9-1.07a2.93,2.93,0,0,1,1.69-.41,3.58,3.58,0,0,1,1.67.51,3.27,3.27,0,0,1,1.24,1.31L91,452.37a3.57,3.57,0,0,1,.44,1.79,3.87,3.87,0,0,1-.46,1.72,3.17,3.17,0,0,1-1.24,1.25l-.34.2L88,454.74l.27-.16a.69.69,0,0,0,.26-.89L84.32,446a.69.69,0,0,0-.39-.32.62.62,0,0,0-.5.05l-1.76,1a.6.6,0,0,0-.29.4.71.71,0,0,0,.05.52l4.2,7.77a3.64,3.64,0,0,1,.44,1.78,3.57,3.57,0,0,1-.46,1.72,3.22,3.22,0,0,1-1.25,1.26l-1.9,1.07a3,3,0,0,1-1.69.42,3.46,3.46,0,0,1-1.66-.51,3.39,3.39,0,0,1-1.25-1.32L73.63,452A3.45,3.45,0,0,1,73.2,450.21Z"/><path class="cls-4" d="M82.63,467a3.68,3.68,0,0,1,.36-1.74A3.09,3.09,0,0,1,84.16,464L98,455l1.53,2.48-4,2.59,3.39,5.45L96.53,467l-3.38-5.45-7.39,4.81a.6.6,0,0,0-.28.42.67.67,0,0,0,.09.5l3,4.88-2.36,1.54-3.07-5A3.52,3.52,0,0,1,82.63,467Z"/><path class="cls-4" d="M87.69,475.85l12.37-8.66,1.62,2.42-12.36,8.65ZM101.81,466l2.3-1.62,1.62,2.42-2.3,1.61Z"/><path class="cls-4" d="M91.3,481.34l11.93-9.26,7.41,9.92a3.46,3.46,0,0,1,.69,1.7,3.73,3.73,0,0,1-.21,1.76,3.14,3.14,0,0,1-1.06,1.42l-9.26,7.19-1.74-2.33,9.2-7.14a.61.61,0,0,0,.24-.44.67.67,0,0,0-.13-.5l-5.22-7a.67.67,0,0,0-.92-.15L93,483.67Z"/><path class="cls-4" d="M100.19,502.64l2.12-1.9,6.27,7.19a.65.65,0,0,0,.46.22.56.56,0,0,0,.47-.15l1.84-1.66-6.22-7.13a3.37,3.37,0,0,1-.81-1.62,3.5,3.5,0,0,1,.08-1.79,3.19,3.19,0,0,1,.95-1.49l6.2-5.58a3.07,3.07,0,0,1,1.58-.78,3.74,3.74,0,0,1,1.75.15,3.29,3.29,0,0,1,1.49,1l5.83,6.68a3.34,3.34,0,0,1,.81,1.64,3.64,3.64,0,0,1-.08,1.77,3.13,3.13,0,0,1-1,1.49l-10.64,9.59a3.15,3.15,0,0,1-1.58.78,3.42,3.42,0,0,1-3.23-1.15Zm7.08-5.25L113,504a.65.65,0,0,0,.46.22.57.57,0,0,0,.47-.15l6.08-5.48a.64.64,0,0,0,.21-.46.67.67,0,0,0-.16-.48L114.33,491a.68.68,0,0,0-.93-.07l-6.08,5.49a.6.6,0,0,0-.21.45A.66.66,0,0,0,107.27,497.39Z"/><path class="cls-4" d="M124.11,519.5a3.4,3.4,0,0,1-1-1.49,3.72,3.72,0,0,1-.14-1.78,3.14,3.14,0,0,1,.77-1.61l3.51-4a1.7,1.7,0,0,1,1.18-.49,2.51,2.51,0,0,1,1.64.49,2.69,2.69,0,0,1,.59-2.27l1.78-2a3.1,3.1,0,0,1,1.48-1,3.42,3.42,0,0,1,1.74-.09,3.49,3.49,0,0,1,1.62.83l7.78,7a3.31,3.31,0,0,1,.9,1.34,4.13,4.13,0,0,1,.25,1.6,3.57,3.57,0,0,1-.39,1.53l-1.15,1.31-2.18-2,.7-.8a.59.59,0,0,0,.16-.46.74.74,0,0,0-.24-.46l-7.69-6.87a.6.6,0,0,0-.46-.17.59.59,0,0,0-.43.21l-2.2,2.52,5.23,12.88,2.12-2.42,2.16,1.93L139,526.47l1.25,3.74-1.77,2-1.42-4a4.07,4.07,0,0,1-2,.28,3.16,3.16,0,0,1-1.74-.78Zm1.92-2.07,8.26,7.39a1.09,1.09,0,0,0,.54.25,1.83,1.83,0,0,0,.66,0l-5-12.16-.25-.33a.54.54,0,0,0-.52-.11,1.34,1.34,0,0,0-.7.49L126,516.5a.66.66,0,0,0-.15.48A.63.63,0,0,0,126,517.43Z"/><path class="cls-4" d="M147.85,539.43l10.59-15.55,14.59,10-1.59,2.33-12.18-8.36-2.9,4.25,9.79,6.73-1.61,2.37-9.8-6.72-4.48,6.59Z"/><path class="cls-4" d="M166.24,551.13a3.87,3.87,0,0,1-.48-1.69,3.12,3.12,0,0,1,.42-1.72l4.16-7.26a3.07,3.07,0,0,1,1.26-1.24,4,4,0,0,1,1.71-.44,3.34,3.34,0,0,1,1.74.46l7.68,4.4a3.45,3.45,0,0,1,1.3,1.27,3.5,3.5,0,0,1,.47,1.7,3.2,3.2,0,0,1-.43,1.71l-2.78,4.86-11.22-6.43-1.34,2.34a.68.68,0,0,0,.26.9l10.63,6.09-1.4,2.45-10.7-6.13A3.26,3.26,0,0,1,166.24,551.13Zm5.14-6.67,8.68,5,1.43-2.49a.65.65,0,0,0-.23-.89l-7.54-4.32a.62.62,0,0,0-.5-.06.64.64,0,0,0-.41.3Z"/><path class="cls-4" d="M184.61,561.69a3.26,3.26,0,0,1-1.39-1.17,3.58,3.58,0,0,1-.62-1.64,3.23,3.23,0,0,1,.31-1.74l2.39-5L197,557.57l1.15-2.44a.6.6,0,0,0,0-.49.63.63,0,0,0-.33-.37l-11.09-5.21,1.21-2.55,11.16,5.24a3.48,3.48,0,0,1,1.4,1.16,3.52,3.52,0,0,1,.61,1.66,3.38,3.38,0,0,1-.31,1.74l-5,10.63Zm1.28-2.51,8.45,4,1.51-3.19-9.06-4.25-1.23,2.6a.62.62,0,0,0,0,.5A.64.64,0,0,0,185.89,559.18Z"/><path class="cls-4" d="M200.85,568.41a3.47,3.47,0,0,1-.72-1.6,3.13,3.13,0,0,1,.19-1.75l6.13-15.36,2.7,1-1.77,4.44,5.94,2.33-1,2.62-5.95-2.32-3.28,8.23a.56.56,0,0,0,0,.49.64.64,0,0,0,.36.36l5.32,2.08-1,2.62-5.4-2.11A3.39,3.39,0,0,1,200.85,568.41Z"/><path class="cls-4" d="M212.18,572.72a3.53,3.53,0,0,1-.82-1.55,3.08,3.08,0,0,1,.08-1.75l3.64-11.18,2.77.87-3.62,11.1a.59.59,0,0,0,.05.5.65.65,0,0,0,.38.33l8.3,2.61a.7.7,0,0,0,.51,0,.65.65,0,0,0,.33-.38l3.62-11.1,2.77.87-3.65,11.18a3.22,3.22,0,0,1-1,1.47,3.73,3.73,0,0,1-1.59.79,3.42,3.42,0,0,1-1.82-.08l-8.45-2.67A3.33,3.33,0,0,1,212.18,572.72Z"/><path class="cls-4" d="M229,578.28l2.85-11.4a3,3,0,0,1,.88-1.53,3.8,3.8,0,0,1,1.54-.9,3.43,3.43,0,0,1,1.8-.06l8.47,2-.68,2.74-8.39-2a.62.62,0,0,0-.51.08.63.63,0,0,0-.31.39l-2.83,11.32Z"/><path class="cls-4" d="M245.18,581.44a3.71,3.71,0,0,1-1-1.41,3,3,0,0,1-.18-1.74l1.44-8.22a3,3,0,0,1,.77-1.59,3.73,3.73,0,0,1,1.46-1,3.35,3.35,0,0,1,1.81-.19l8.76,1.39a3.41,3.41,0,0,1,2.7,2.14,3.22,3.22,0,0,1,.17,1.74l-1,5.5-12.81-2-.46,2.64a.6.6,0,0,0,.12.48.64.64,0,0,0,.43.27l12.14,1.93-.49,2.77-12.21-1.94A3.36,3.36,0,0,1,245.18,581.44Zm2.58-8,9.91,1.56.49-2.82a.64.64,0,0,0-.11-.48.59.59,0,0,0-.41-.26L249,570.06a.7.7,0,0,0-.5.12.66.66,0,0,0-.28.42Z"/><path class="cls-4" d="M271.09,585.28l1-18.71,17.78.6-.15,2.8-14.85-.49-.28,5.11,11.94.4-.15,2.86-11.94-.4-.43,7.92Z"/><path class="cls-4" d="M292.89,585.13a3.71,3.71,0,0,1-1.28-1.18,3,3,0,0,1-.5-1.67L291,565.65l2.91-.09.15,16.55a.63.63,0,0,0,.21.45.69.69,0,0,0,.47.18l2.84-.09,0,2.8-2.91.09A3.27,3.27,0,0,1,292.89,585.13Z"/><path class="cls-4" d="M303.78,585.09a3.4,3.4,0,0,1-1.8-.3,3.53,3.53,0,0,1-1.35-1.09,3,3,0,0,1-.59-1.64l-.39-5.54,13-1.22-.19-2.67a.62.62,0,0,0-.22-.43.58.58,0,0,0-.47-.15l-12.3,1.16-.2-2.8,12.38-1.16a3.46,3.46,0,0,1,1.79.28,3.52,3.52,0,0,1,1.36,1.11,3.23,3.23,0,0,1,.59,1.64l.82,11.65Zm-.12-2.8,9.37-.88-.25-3.5-10,1,.2,2.85a.58.58,0,0,0,.24.43A.61.61,0,0,0,303.66,582.29Z"/><path class="cls-4" d="M323.11,588.84l-.44-2.78,9.47-1.72a.67.67,0,0,0,.43-.27.58.58,0,0,0,.13-.48l-.37-2.44-9.39,1.7a3.43,3.43,0,0,1-1.8-.14,3.32,3.32,0,0,1-1.45-1,3.11,3.11,0,0,1-.73-1.58L317.69,572a3.17,3.17,0,0,1,.22-1.75,4.07,4.07,0,0,1,1.08-1.43,3.49,3.49,0,0,1,1.65-.77l8.8-1.59a3.35,3.35,0,0,1,1.81.15,3.47,3.47,0,0,1,1.44,1,3.08,3.08,0,0,1,.73,1.58l2.18,14a3.3,3.3,0,0,1-.21,1.76,3.6,3.6,0,0,1-2.74,2.19Zm-.52-8.77,8.64-1.56a.67.67,0,0,0,.44-.28.65.65,0,0,0,.13-.48l-1.25-8a.61.61,0,0,0-.27-.41.62.62,0,0,0-.49-.11l-8.64,1.56a.67.67,0,0,0-.44.28.65.65,0,0,0-.13.48l1.25,8a.57.57,0,0,0,.27.41A.62.62,0,0,0,322.59,580.07Z"/><path class="cls-4" d="M342.44,585l-.66-2.74,9.31-2.49a.69.69,0,0,0,.42-.31.63.63,0,0,0,.09-.49l-.58-2.39L341.79,579a3.47,3.47,0,0,1-1.81,0,3.33,3.33,0,0,1-1.53-.86,3,3,0,0,1-.85-1.51l-1.94-8a3.19,3.19,0,0,1,.08-1.76,4,4,0,0,1,1-1.51,3.57,3.57,0,0,1,1.59-.91l8.65-2.31a3.45,3.45,0,0,1,1.83,0,3.53,3.53,0,0,1,1.51.85,3,3,0,0,1,.85,1.51l3.32,13.79a3.13,3.13,0,0,1-.06,1.77,3.66,3.66,0,0,1-.95,1.51,3.61,3.61,0,0,1-1.61.9Zm-1.22-8.68,8.5-2.28a.66.66,0,0,0,.41-.31.62.62,0,0,0,.09-.49l-1.9-7.89a.59.59,0,0,0-.3-.38.65.65,0,0,0-.51-.07L339,567.14a.7.7,0,0,0-.42.32.62.62,0,0,0-.09.49l1.9,7.88a.59.59,0,0,0,.3.39A.66.66,0,0,0,341.22,576.29Z"/><path class="cls-4" d="M352.17,558.3l-.8-2.67,2.79-.91.8,2.67Zm4.89,16.36-4.29-14.33,2.79-.91,4.29,14.33Z"/><path class="cls-4" d="M363.45,572.66l-5.08-14L370,554.06a3.38,3.38,0,0,1,1.82-.21,3.51,3.51,0,0,1,1.6.67,3,3,0,0,1,1,1.4l3.94,10.91-2.73,1.07-3.92-10.84a.57.57,0,0,0-.34-.34.61.61,0,0,0-.51,0l-8.22,3.2a.68.68,0,0,0-.38.35.63.63,0,0,0,0,.5l3.91,10.83Z"/><path class="cls-4" d="M386.48,569.59l-1.17-2.54,8.69-4.26a.67.67,0,0,0,.35-.39.6.6,0,0,0,0-.49l-1-2.22-8.62,4.22a3.57,3.57,0,0,1-1.78.37,3.28,3.28,0,0,1-1.67-.54,3,3,0,0,1-1.13-1.3L376.68,555a3,3,0,0,1-.26-1.73,3.76,3.76,0,0,1,.66-1.67,3.54,3.54,0,0,1,1.38-1.19l8.08-4a3.5,3.5,0,0,1,3.46.17,3,3,0,0,1,1.13,1.3L397,560.7a3.18,3.18,0,0,1,.28,1.74,3.51,3.51,0,0,1-.65,1.66,3.6,3.6,0,0,1-1.41,1.2Zm-2.87-8.24,7.94-3.89a.69.69,0,0,0,.35-.38.62.62,0,0,0,0-.5l-3.38-7.33a.57.57,0,0,0-.37-.32.65.65,0,0,0-.51,0l-7.93,3.88a.67.67,0,0,0-.35.39.62.62,0,0,0,0,.5l3.38,7.33a.62.62,0,0,0,.37.32A.69.69,0,0,0,383.61,561.35Z"/><path class="cls-2" d="M424.47,253.07a8,8,0,0,0-4.52-2.69l-58.47-14.76-.3-.07L248.24,223.86l-5.66,54.67L356,290.27l62.82-16.16a8.17,8.17,0,0,0,4.36-2.3,7.53,7.53,0,0,0,2-4.47l.93-9A6.93,6.93,0,0,0,424.47,253.07Zm-7.58,12.85-61.55,15.83L251.81,271l3.93-37.94,104,10.76,58,14.63Z"/><polygon class="cls-1" points="417.66 258.48 416.89 265.92 355.34 281.75 251.81 271.03 255.74 233.09 359.71 243.85 417.66 258.48"/><polygon class="cls-3" points="325.04 317.02 321.1 354.96 217.57 344.21 160.67 316.13 160.59 316.08 161.35 308.64 221.06 306.22 325.04 317.02"/><path class="cls-2" d="M221.63,297.82l-.3,0-60.56,2.47a8,8,0,0,0-5,1.69,7,7,0,0,0-2.69,4.83l-.94,9a7.57,7.57,0,0,0,1.07,4.78,8.15,8.15,0,0,0,3.81,3.16l58.17,28.71,113.38,11.77,5.68-54.67Zm-4.06,46.39-56.9-28.08-.08-.05.76-7.44,59.71-2.42L325,317,321.1,355Z"/><polygon class="cls-5" points="315.01 320.92 311.63 349.57 279.61 346.71 303.64 319.98 315.01 320.92"/><polygon class="cls-5" points="273.34 345.15 297.31 319.24 286.61 317.86 261.1 344.33 273.34 345.15"/><polygon class="cls-5" points="263.26 237.33 259.72 265.96 291.5 270.81 274.52 239.13 263.26 237.33"/><polygon class="cls-5" points="297.96 270.78 280.86 239.91 291.57 241.12 310.05 272.91 297.96 270.78"/></g></svg>